<svg xmlns="http://www.w3.org/2000/svg" xmlns:xlink="http://www.w3.org/1999/xlink" width="282.75" height="57.45684227050307" viewBox="0 0 370.00000000000006 75.18667246714814"
    class="looka-1j8o68f">
    <defs id="SvgjsDefs1460">
        <linearGradient id="SvgjsLinearGradient1465">
            <stop id="SvgjsStop1466" stop-color="#00ff8f" offset="0"></stop>
            <stop id="SvgjsStop1467" stop-color="#00a1ff" offset="1"></stop>
        </linearGradient>
        <linearGradient id="SvgjsLinearGradient1468">
            <stop id="SvgjsStop1469" stop-color="#00ff8f" offset="0"></stop>
            <stop id="SvgjsStop1470" stop-color="#00a1ff" offset="1"></stop>
        </linearGradient>
    </defs>
    <g id="SvgjsG1461" featurekey="S6ay6y-0"
        transform="matrix(0.8445775961373654,0,0,0.8445775961373654,-7.229302669148134,-4.636047786222187)"
        fill="url(#SvgjsLinearGradient1465)">
        <g xmlns="http://www.w3.org/2000/svg">
            <path fill-rule="evenodd" clip-rule="evenodd"
                d="M91.328,61.843c-0.065-0.408-0.3-0.643-0.605-0.87   c-3.865-2.872-7.729-5.747-11.586-8.632c-0.346-0.258-0.71-0.45-1.108-0.606c-11.314-4.42-22.629-8.839-33.937-13.275   c-6.89-2.703-13.747-5.496-20.936-7.349c-0.305-0.078-0.594-0.163-0.912-0.137c-3.251,0.258-6.503,0.509-9.753,0.771   c-0.249,0.02-0.514-0.008-0.79,0.166c-0.124,0.637-0.515,1.241-0.527,2.002c0.34,0,0.623-0.002,0.905,0   c3.546,0.038,7.093,0.087,10.64,0.105c0.781,0.004,1.503,0.166,2.225,0.446c17.408,6.755,34.814,13.513,52.234,20.236   c1.782,0.688,3.438,1.539,5.005,2.631c2.947,2.056,5.947,4.035,8.971,6.076C91.51,62.866,91.494,62.866,91.328,61.843z"></path>
            <path fill-rule="evenodd" clip-rule="evenodd"
                d="M89.737,64.521c-2.25-1.363-4.5-2.727-6.758-4.078   c-0.871-0.522-1.696-1.129-2.654-1.497C61.497,51.709,42.667,44.474,23.84,37.23c-0.431-0.166-0.863-0.256-1.317-0.302   c-2.624-0.261-5.247-0.53-7.87-0.794c-1.379-0.139-2.759-0.271-4.161-0.41c-0.218,0.666-0.536,1.256-0.558,1.957   c3.109,0.598,6.168,1.167,9.218,1.78c1.385,0.279,2.811,0.397,4.141,0.904c17.923,6.838,35.844,13.682,53.764,20.531   c1.794,0.686,3.639,1.255,5.359,2.11c2,0.994,3.949,2.087,5.926,3.127c0.218,0.115,0.411,0.312,0.747,0.271   c0.352-0.497,0.723-1.021,1.072-1.515C90.054,64.654,89.877,64.605,89.737,64.521z"></path>
            <path fill-rule="evenodd" clip-rule="evenodd"
                d="M29.206,45.674c-2.457-0.93-4.891-1.933-7.385-2.747   c-2.711-0.885-5.48-1.59-8.225-2.37c-1.294-0.367-2.59-0.726-3.955-1.108c0,0.709,0,1.327,0,2.075   c25.541,9.607,51.075,19.211,76.65,28.831c0.513-0.727,0.991-1.404,1.513-2.146c-1.816-0.805-3.512-1.651-5.274-2.322   C64.761,59.133,46.982,52.405,29.206,45.674z"></path>
            <path fill-rule="evenodd" clip-rule="evenodd"
                d="M12.992,29.723c2.236-0.365,4.47-0.745,6.707-1.103   c1.025-0.165,2.021-0.374,3.094-0.044c3.404,1.045,6.837,1.994,10.258,2.988c2.388,0.693,4.833,1.216,7.149,2.123   c12.232,4.791,24.448,9.625,36.67,14.44c0.345,0.136,0.672,0.283,0.964,0.521c3.735,3.046,7.47,6.092,11.217,9.123   c0.562,0.454,1.071,0.988,1.769,1.336c0.081-0.518-0.147-0.945-0.147-1.396c0-0.524-0.259-0.882-0.647-1.222   c-4.425-3.859-8.841-7.729-13.25-11.608c-0.349-0.306-0.724-0.521-1.15-0.69c-7.722-3.061-15.44-6.13-23.16-9.194   c-1.943-0.771-3.847-1.688-5.847-2.255c-8.404-2.383-16.838-4.656-25.259-6.979c-0.399-0.11-0.768-0.108-1.165-0.004   c-1.067,0.28-2.143,0.526-3.213,0.794c-1.284,0.322-2.566,0.655-3.847,0.982c-0.238,0.747-0.459,1.44-0.675,2.118   C12.656,29.803,12.832,29.75,12.992,29.723z"></path>
            <path fill-rule="evenodd" clip-rule="evenodd"
                d="M27.979,51.37c-2.671-0.999-5.394-1.87-7.98-3.082   c-3.275-1.535-6.533-3.107-9.803-4.652c-0.208-0.098-0.405-0.332-0.719-0.161c0,0.61,0,1.231,0,1.885   c0.101,0.067,0.211,0.151,0.331,0.219c3.434,1.973,6.866,3.947,10.304,5.91c0.316,0.181,0.664,0.31,1.007,0.438   c9.535,3.536,19.071,7.069,28.607,10.602c10.648,3.944,21.297,7.887,31.99,11.846c0.892-0.593,1.798-1.195,2.827-1.88   c-0.401-0.154-0.653-0.254-0.907-0.349C65.082,65.223,46.527,58.307,27.979,51.37z"></path>
            <path fill-rule="evenodd" clip-rule="evenodd"
                d="M78.614,75.919c-2.784-1.021-5.568-2.044-8.352-3.067   C53.745,66.779,37.229,60.707,20.71,54.64c-0.509-0.187-0.979-0.424-1.428-0.727c-3.05-2.059-6.107-4.106-9.164-6.155   c-0.227-0.152-0.429-0.356-0.78-0.42c0,0.676,0,1.316,0,2.048c3.243,2.512,6.49,5.026,9.737,7.542   c0.272,0.211,0.581,0.336,0.903,0.454C35.316,62.977,50.651,68.58,65.987,74.18c3.446,1.258,6.895,2.511,10.349,3.768   c0.88-0.615,1.804-1.127,2.603-1.795C78.836,75.97,78.719,75.958,78.614,75.919z"></path>
            <path fill-rule="evenodd" clip-rule="evenodd"
                d="M20.736,23.517c9.567,2.537,19.139,5.056,28.703,7.6   c1.939,0.516,3.923,0.885,5.793,1.629c6.357,2.526,12.704,5.076,19.058,7.609c0.508,0.204,0.949,0.476,1.35,0.854   c4.603,4.344,9.214,8.68,13.828,13.012c0.198,0.187,0.354,0.446,0.724,0.524c-0.138-1.081-0.22-2.043-1.098-2.904   c-4.62-4.532-9.185-9.122-13.723-13.735c-1.017-1.032-2.116-1.803-3.479-2.314c-4.757-1.783-9.37-3.901-14.353-5.119   c-12.611-3.08-25.172-6.359-37.755-9.554c-0.294-0.075-0.592-0.168-0.912-0.031c-1.401,0.598-2.808,1.182-4.208,1.769   c-0.263,0.807-0.512,1.576-0.809,2.489c1.918-0.634,3.67-1.188,5.402-1.799C19.772,23.367,20.228,23.382,20.736,23.517z"></path>
            <path fill-rule="evenodd" clip-rule="evenodd"
                d="M19.486,59.956c-0.382-0.138-0.708-0.321-1.011-0.589   c-2.81-2.473-5.627-4.938-8.446-7.4c-0.242-0.211-0.47-0.457-0.862-0.608c0,0.731,0,1.376,0,2.082   c2.832,2.775,5.713,5.591,8.579,8.422c0.434,0.429,0.91,0.724,1.486,0.931c14.939,5.364,29.874,10.741,44.811,16.115   c2.336,0.84,4.675,1.674,7.04,2.52c0.86-0.569,1.705-1.128,2.705-1.787c-1.158-0.425-2.156-0.794-3.155-1.157   C53.584,72.305,36.537,66.127,19.486,59.956z"></path>
            <path fill-rule="evenodd" clip-rule="evenodd"
                d="M19.002,19.112c2.963,0.74,5.936,1.443,8.903,2.168   c12.007,2.932,24.016,5.854,36.018,8.811c2.684,0.661,5.434,1.103,7.979,2.27c0.448,0.206,0.822,0.458,1.158,0.816   c4.257,4.528,8.521,9.05,12.784,13.571c1.184,1.254,2.37,2.505,3.555,3.757c-0.046-0.929,0.059-1.835-0.623-2.593   c-5.316-5.904-10.61-11.828-15.9-17.754c-0.264-0.295-0.563-0.454-0.929-0.539c-6.804-1.594-13.605-3.187-20.408-4.784   c-10.795-2.534-21.593-5.058-32.38-7.627c-1.014-0.242-1.869-0.223-2.678,0.441c-0.043,0.035-0.087,0.071-0.172,0.142   c-0.257,0.809-0.528,1.659-0.849,2.668c0.936-0.465,1.719-0.843,2.489-1.245C18.298,19.032,18.612,19.014,19.002,19.112z"></path>
            <path fill-rule="evenodd" clip-rule="evenodd"
                d="M67.779,82.776C51.37,76.908,34.957,71.05,18.543,65.195   c-0.411-0.146-0.75-0.354-1.046-0.678c-2.395-2.616-4.8-5.221-7.203-7.829c-0.375-0.406-0.75-0.813-1.27-1.376   c0,0.887,0,1.553,0,2.3c2.635,3.149,5.332,6.362,8.01,9.59c0.314,0.378,0.712,0.533,1.139,0.685   c13.524,4.793,27.049,9.586,40.573,14.38c2.393,0.849,4.785,1.701,7.215,2.563c0.847-0.562,1.683-1.118,2.523-1.676   C68.293,82.852,68.005,82.857,67.779,82.776z"></path>
            <path fill-rule="evenodd" clip-rule="evenodd"
                d="M17.64,70.274c-0.469-0.166-0.837-0.414-1.142-0.818   c-1.553-2.06-3.126-4.104-4.695-6.15c-0.926-1.207-1.857-2.41-2.786-3.615c-0.048,0.013-0.097,0.024-0.146,0.037   c0,0.667,0,1.334,0,2.131c2.298,3.262,4.686,6.637,7.054,10.027c0.341,0.488,0.75,0.776,1.316,0.974   c12.434,4.337,24.861,8.693,37.291,13.044c2.154,0.755,4.313,1.496,6.453,2.237c0.839-0.558,1.633-1.087,2.556-1.701   c-0.373-0.139-0.584-0.22-0.797-0.295C47.709,80.853,32.676,75.561,17.64,70.274z"></path>
            <path fill-rule="evenodd" clip-rule="evenodd"
                d="M43.208,21.058c9.712,2.196,19.422,4.403,29.136,6.589   c0.416,0.093,0.705,0.264,0.978,0.583c4.925,5.789,9.859,11.569,14.795,17.35c0.222,0.26,0.416,0.559,0.762,0.737   c-0.052-1.182-0.361-2.146-1.119-3.062c-4.433-5.348-8.824-10.729-13.165-16.151c-0.812-1.015-1.663-1.704-2.977-1.794   c-0.446-0.031-0.881-0.201-1.323-0.296c-8.212-1.781-16.425-3.556-24.636-5.343c-8.21-1.788-16.417-3.59-24.629-5.373   c-0.264-0.057-0.531-0.197-0.827-0.092c-0.874,0.31-1.751,0.608-2.779,0.963c0.343,0.114,0.519,0.189,0.702,0.23   C26.486,17.288,34.849,19.167,43.208,21.058z"></path>
            <path fill-rule="evenodd" clip-rule="evenodd"
                d="M23.34,13.343c4.653,0.978,9.308,1.95,13.961,2.926   c11.882,2.493,23.764,4.994,35.651,7.462c0.645,0.134,1.049,0.426,1.435,0.92c4.477,5.747,8.971,11.481,13.462,17.218   c0.099,0.126,0.158,0.318,0.433,0.266c-0.229-0.769-0.086-1.598-0.632-2.319c-4.362-5.761-8.7-11.541-13.04-17.318   c-0.25-0.333-0.533-0.516-0.964-0.602c-3.526-0.696-7.045-1.434-10.568-2.146c-12.263-2.479-24.528-4.952-36.792-7.43   c-0.194-0.04-0.379-0.121-0.581-0.049c-0.834,0.298-1.669,0.595-2.535,0.903C23.266,13.273,23.298,13.334,23.34,13.343z"></path>
            <path fill-rule="evenodd" clip-rule="evenodd"
                d="M16.89,75.22c-0.614-0.212-1.049-0.534-1.41-1.098   c-1.984-3.1-4.012-6.171-6.031-9.248c-0.198-0.302-0.341-0.648-0.772-0.97c0.019,0.853-0.297,1.627,0.036,2.235   c0.76,1.386,1.495,2.812,2.501,4.035c1.369,1.664,2.847,3.238,4.272,4.856c0.266,0.303,0.569,0.539,0.924,0.732   c2.981,1.62,5.957,3.252,8.932,4.883c0.398,0.218,0.81,0.397,1.24,0.546c7.827,2.698,15.652,5.405,23.478,8.107   c2.025,0.699,4.051,1.392,6.066,2.083c0.791-0.596,1.641-1.022,2.394-1.682c-0.156-0.075-0.227-0.118-0.303-0.144   C44.443,84.774,30.668,79.991,16.89,75.22z"></path>
            <path fill-rule="evenodd" clip-rule="evenodd"
                d="M87.462,38.137c0.066-0.028,0.134-0.056,0.201-0.084   c-0.209-0.743-0.124-1.53-0.622-2.236c-3.904-5.526-7.785-11.069-11.66-16.617c-0.284-0.405-0.619-0.591-1.099-0.68   c-4.092-0.754-8.179-1.533-12.267-2.302c-4.673-0.879-9.347-1.754-14.019-2.634c-5.256-0.99-10.514-1.978-15.768-2.977   c-1.143-0.217-2.548,0.07-3.64,0.815c15.381,3.002,30.728,5.999,45.997,8.98C78.92,26.373,83.19,32.255,87.462,38.137z"></path>
            <path fill-rule="evenodd" clip-rule="evenodd"
                d="M86.933,34.299c-0.021-1.345-0.588-2.471-1.256-3.501   c-3.201-4.942-6.465-9.843-9.694-14.767c-0.226-0.344-0.506-0.492-0.891-0.559c-5.302-0.917-10.604-1.832-15.902-2.765   c-7.279-1.28-14.562-2.543-21.83-3.89c-1.373-0.255-2.45,0.274-3.61,0.812c13.836,2.518,27.671,5.035,41.549,7.56   C79.168,22.881,83.051,28.59,86.933,34.299z"></path>
            <path fill-rule="evenodd" clip-rule="evenodd"
                d="M82.534,24.493c0.061-0.038,0.12-0.075,0.181-0.113   c-1.476-4.22-4.093-7.814-6.41-11.618c-4.295-0.698-8.599-1.39-12.9-2.098c-7.097-1.168-14.197-2.319-21.283-3.546   c-1.306-0.226-2.338,0.261-3.44,0.797c12.434,2.112,24.869,4.225,37.275,6.333C78.166,17.69,80.351,21.092,82.534,24.493z"></path>
            <path fill-rule="evenodd" clip-rule="evenodd"
                d="M76.639,11.108c-0.064-0.02-0.142-0.051-0.223-0.066   C71.225,10.03,66.032,9.019,60.84,8.011c-4.5-0.874-9.005-1.714-13.535-2.425c-1.409-0.221-2.679-0.089-4.054,0.661   C54.494,8.033,65.61,9.8,76.733,11.567C76.786,11.425,76.78,11.265,76.639,11.108z"></path>
            <path fill-rule="evenodd" clip-rule="evenodd"
                d="M53.289,92.726c-4.462-1.532-8.927-3.056-13.386-4.596   c-0.309-0.106-0.601-0.139-1.029-0.089c3.508,1.916,6.904,3.764,10.291,5.626c0.7,0.386,1.438,0.641,2.225,0.845   c0.771-0.518,1.534-1.029,2.291-1.536C53.57,92.754,53.411,92.768,53.289,92.726z"></path>
        </g>
    </g>
    <g id="SvgjsG1462" featurekey="j5pGhi-0"
        transform="matrix(2.620123762112933,0,0,2.620123762112933,86.4945035112004,1.66534404538063)"
        fill="url(#SvgjsLinearGradient1468)">
        <path
            d="M2.3926 10.332 q-0.87890625 1.46484375 -1.0546875 2.880859375 q0 10.16601563 0 10.14648438 l1.3672 0 l0 -5.9766 q0.869140625 1.064453125 1.943359375 1.586914063 t2.3535 0.52246 q2.265625 0 3.876953125 -1.650390625 t1.6113 -4.0039 q0 -2.314453125 -1.62109375 -3.955078125 t-3.9063 -1.6406 q-1.30859375 0 -2.456054688 0.5029296875 t-2.1143 1.5869 z M6.8457 9.561 q1.162109375 0 2.133789063 0.5712890625 t1.5479 1.5869 t0.57617 2.168 q0 1.1328125 -0.5810546875 2.172851563 t-1.5625 1.6113 t-2.0947 0.57129 q-1.1328125 0 -2.1484375 -0.5712890625 t-1.5625 -1.5527 t-0.54688 -2.1924 q0 -1.865234375 1.23046875 -3.115234375 t3.0078 -1.25 z M20.312503125 8.203 q2.470703125 0 4.1015625 1.787109375 q1.50390625 1.630859375 1.50390625 3.876953125 q0.01953125 5.546875 0 5.634765625 l-1.4551 0 l0 -2.4316 q-1.142578125 2.12890625 -4.150390625 2.3828125 q-2.4609375 0 -4.018554688 -1.674804688 t-1.5576 -3.9111 q0 -2.2265625 1.474609375 -3.8671875 q1.630859375 -1.796875 4.1015625 -1.796875 z M20.312503125 9.551 q-1.708984375 0 -2.939453125 1.26953125 t-1.2305 3.0664 q0 1.162109375 0.6298828125 2.236328125 t2.1338 1.8164 q3.76953125 0.83984375 5.361328125 -3.427734375 q0.087890625 -1.3671875 -0.29296875 -2.6171875 q-0.2734375 -0.56640625 -0.751953125 -1.07421875 q-1.201171875 -1.26953125 -2.91015625 -1.26953125 z M39.208546874999996 17.0117 q0 2.255859375 -0.400390625 3.30078125 q-0.537109375 1.474609375 -1.879882813 2.270507813 t-3.2178 0.7959 q-1.38671875 0 -2.48046875 -0.390625 t-1.7871 -1.0449 t-1.2695 -1.9141 l1.4941 0 q0.615234375 1.064453125 1.577148438 1.572265625 t2.3975 0.50781 q1.40625 0 2.377929688 -0.52734375 t1.3818 -1.3184 t0.41016 -2.5684 l0 -0.54688 q-0.771484375 0.986328125 -1.899414063 1.513671875 t-2.3779 0.52734 q-1.474609375 0 -2.778320313 -0.732421875 t-2.0117 -1.9775 t-0.70801 -2.7295 t0.7373 -2.7686 t2.0459 -2.0313 t2.7441 -0.74707 q1.2109375 0 2.197265625 0.37109375 q0.830078125 0.302734375 1.962890625 1.162109375 q0.95703125 0.791015625 1.50390625 3.017578125 q-0.01953125 0.29296875 -0.01953125 4.2578125 z M33.740246875 9.531 q-1.171875 0 -2.172851563 0.56640625 t-1.5723 1.5625 t-0.57129 2.1582 q0 1.767578125 1.181640625 2.919921875 t3.0566 1.1523 q1.9140625 0 3.06640625 -1.142578125 t1.1523 -3.0078 q0 -1.2109375 -0.5322265625 -2.158203125 t-1.5039 -1.499 t-2.1045 -0.55176 z M51.15246875 15.6348 l1.1523 0.61523 q-0.556640625 1.123046875 -1.30859375 1.806640625 t-1.6895 1.04 t-2.1191 0.35645 q-2.6171875 0 -4.091796875 -1.713867188 t-1.4746 -3.8721 q0 -2.041015625 1.25 -3.6328125 q1.58203125 -2.03125 4.248046875 -2.03125 q2.724609375 0 4.365234375 2.080078125 q1.162109375 1.46484375 1.171875 3.65234375 l-9.6191 0 q0.0390625 1.875 1.19140625 3.071289063 t2.8418 1.1963 q0.8203125 0 1.591796875 -0.2880859375 t1.3135 -0.75684 t1.1768 -1.5234 z M51.15246875 12.7539 q-0.2734375 -1.103515625 -0.80078125 -1.762695313 t-1.3965 -1.0645 t-1.8262 -0.40527 q-1.572265625 0 -2.705078125 1.015625 q-0.8203125 0.7421875 -1.240234375 2.216796875 l7.9688 0 z M61.4551 10.332 q-0.87890625 1.46484375 -1.0546875 2.880859375 q0 10.16601563 0 10.14648438 l1.3672 0 l0 -5.9766 q0.869140625 1.064453125 1.943359375 1.586914063 t2.3535 0.52246 q2.265625 0 3.876953125 -1.650390625 t1.6113 -4.0039 q0 -2.314453125 -1.62109375 -3.955078125 t-3.9063 -1.6406 q-1.30859375 0 -2.456054688 0.5029296875 t-2.1143 1.5869 z M65.9082 9.561 q1.162109375 0 2.133789063 0.5712890625 t1.5479 1.5869 t0.57617 2.168 q0 1.1328125 -0.5810546875 2.172851563 t-1.5625 1.6113 t-2.0947 0.57129 q-1.1328125 0 -2.1484375 -0.5712890625 t-1.5625 -1.5527 t-0.54688 -2.1924 q0 -1.865234375 1.23046875 -3.115234375 t3.0078 -1.25 z M73.789103125 14.541 l0 -1.2891 q0.15625 -0.966796875 0.44921875 -1.572265625 q0.68359375 -1.6796875 1.8359375 -2.4609375 t1.9141 -0.78125 q0.56640625 0 1.2109375 0.37109375 l-0.71289 1.1523 q-0.908203125 -0.33203125 -1.801757813 0.537109375 t-1.2354 1.8945 q-0.25390625 0.908203125 -0.25390625 3.408203125 l0 3.623 l-1.4063 0 l0 -4.8828 z M80.849590625 4.3260000000000005 q0.46875 0 0.8056640625 0.33203125 t0.33691 0.80078 t-0.33691 0.80566 t-0.80566 0.33691 t-0.80078 -0.33691 t-0.33203 -0.80566 t0.33203 -0.80078 t0.80078 -0.33203 z M80.165990625 8.73 l1.377 0 l0 10.713 l-1.377 0 l0 -10.713 z M89.775428125 9.648 l-0.87891 0.91797 q-1.11328125 -1.07421875 -2.158203125 -1.07421875 q-0.673828125 0 -1.15234375 0.439453125 t-0.47852 1.0449 q0 0.5078125 0.400390625 0.9765625 q0.390625 0.498046875 1.650390625 1.142578125 q1.54296875 0.791015625 2.08984375 1.533203125 q0.537109375 0.751953125 0.537109375 1.689453125 q0 1.30859375 -0.9228515625 2.221679688 t-2.3096 0.91309 q-0.927734375 0 -1.772460938 -0.3955078125 t-1.3916 -1.1084 l0.86914 -0.98633 q1.0546875 1.19140625 2.236328125 1.19140625 q0.8203125 0 1.401367188 -0.5322265625 t0.58105 -1.2451 q0 -0.595703125 -0.380859375 -1.0546875 t-1.7285 -1.1523 q-1.455078125 -0.732421875 -1.97265625 -1.474609375 q-0.52734375 -0.72265625 -0.52734375 -1.66015625 q0 -1.220703125 0.8349609375 -2.026367188 t2.0947 -0.80566 q1.474609375 0 2.978515625 1.4453125 z M92.187528125 15.293 l0 -1.709 q0.17578125 -2.1875 0.91796875 -3.203125 q0.615234375 -0.927734375 1.611328125 -1.474609375 q0.654296875 -0.419921875 1.865234375 -0.44921875 q0.78125 0 1.58203125 0.29296875 t1.2402 0.78125 t0.88867 1.4648 q0.244140625 -0.625 1.025390625 -1.46484375 q0.380859375 -0.322265625 0.986328125 -0.634765625 q0.41015625 -0.263671875 1.904296875 -0.439453125 q1.11328125 0 2.138671875 0.556640625 t1.4404 1.5674 t0.41504 3.0127 l0 5.8496 l-1.4063 0 l0 -5.8496 q0 -1.71875 -0.244140625 -2.36328125 t-0.83984 -1.04 t-1.4355 -0.39551 q-1.58203125 0.107421875 -2.705078125 1.533203125 q-0.439453125 0.60546875 -0.6640625 2.685546875 l0 5.4297 l-1.377 0 l0 -5.4883 q0 -1.93359375 -0.4296875 -2.631835938 t-1.0254 -1.1133 t-1.4844 -0.41504 q-0.95703125 0 -1.645507813 0.48828125 t-1.0791 1.46 t-0.3125 3.1592 l0 4.541 l-1.3672 0 l0 -4.1504 z"></path>
    </g>
</svg>